<svg width="135" height="139" viewBox="0 0 135 139" fill="none" xmlns="http://www.w3.org/2000/svg">
<rect width="135" height="139" fill="white"/>
<path d="M39.2031 99V96.0469L43.0234 95.3906V68.5078L39.2031 67.8516V64.875H49.1875L60.1797 90.7734H60.3203L70.9609 64.875H81.25V67.8516L77.4297 68.5078V95.3906L81.25 96.0469V99H68.9922V96.0469L73.0234 95.3906V71.1797L72.9062 71.1562L61.8203 97.7812H58.75L47.2891 71.2031L47.1719 71.2266L47.3359 85.5V95.3906L51.4609 96.0469V99H39.2031Z" fill="black"/>
<g filter="url(#filter0_d)">
<path d="M83 5.94922H84.4766L84.8047 7.85937L98.2461 7.85937L98.5742 5.94922H100.051V13.5547C100.051 15.4141 99.6367 16.8398 98.8086 17.832C97.9883 18.8242 96.8203 19.3203 95.3047 19.3203C94.1328 19.3203 93.1836 19.0273 92.457 18.4414C91.7305 17.8555 91.2305 17.0391 90.957 15.9922L84.7227 18.875L84.5117 20.0586L83 20.0586V17.2109L90.6875 13.7891L90.6172 10.168H84.8047L84.4766 12.0781H83V5.94922ZM92.4336 10.168V13.3203C92.4336 14.6094 92.6797 15.5469 93.1719 16.1328C93.6641 16.7188 94.3828 17.0117 95.3281 17.0117C96.2266 17.0117 96.9375 16.7305 97.4609 16.168C97.9844 15.6055 98.2461 14.7344 98.2461 13.5547V10.168L92.4336 10.168ZM82.7539 26.2109C82.7539 24.8906 83.0742 23.8867 83.7148 23.1992C84.3633 22.5117 85.2734 22.168 86.4453 22.168C87.6484 22.168 88.6133 22.6602 89.3398 23.6445C90.0742 24.6289 90.4414 25.9961 90.4414 27.7461V30.0078H91.6836C92.4492 30.0078 93.043 29.7734 93.4648 29.3047C93.8867 28.8437 94.0977 28.1914 94.0977 27.3477C94.0977 26.8164 94.0312 26.3555 93.8984 25.9648C93.7734 25.5742 93.5977 25.2187 93.3711 24.8984L91.6016 24.6523V22.8711H94.5078C95.4453 24.0195 95.9141 25.5234 95.9141 27.3828C95.9141 28.9219 95.5469 30.1289 94.8125 31.0039C94.0781 31.8789 93.0273 32.3164 91.6602 32.3164H85.5547C85.3906 32.3164 85.2305 32.3164 85.0742 32.3164C84.918 32.3242 84.7617 32.3359 84.6055 32.3516L84.4766 33.582H83V30.2656C83.6406 30.1328 84.2227 30.0508 84.7461 30.0195C84.1758 29.5742 83.6992 29.0156 83.3164 28.3437C82.9414 27.6797 82.7539 26.9687 82.7539 26.2109ZM84.6875 26.5508C84.6875 27.3164 84.8711 28.0156 85.2383 28.6484C85.6055 29.2812 86.0469 29.7344 86.5625 30.0078H88.8594V27.6641C88.8594 26.6016 88.6055 25.8047 88.0977 25.2734C87.5898 24.7422 87.0234 24.4766 86.3984 24.4766C85.2578 24.4766 84.6875 25.168 84.6875 26.5508ZM83 35.082H84.4766L84.8047 36.9922H99.4648L99.793 35.082H101.281V39.3008H93.9922C94.6016 39.7383 95.0742 40.2734 95.4102 40.9062C95.7461 41.5391 95.9141 42.2422 95.9141 43.0156C95.9141 44.375 95.5078 45.4297 94.6953 46.1797C93.8828 46.9297 92.6328 47.3047 90.9453 47.3047L84.8047 47.3047L84.4766 49.2148H83V43.0859H84.4766L84.8047 44.9961L90.9688 44.9961C93.0156 44.9961 94.0391 44.1016 94.0391 42.3125C94.0391 41.6797 93.8867 41.1016 93.582 40.5781C93.2852 40.0625 92.8789 39.6367 92.3633 39.3008L84.8047 39.3008L84.4766 41.2109H83V35.082ZM83 50.7969H84.4766L84.8047 52.707L93.8633 52.707L94.1914 50.7969H95.6797V54.7812L94.0273 54.9336C94.6289 55.3398 95.0937 55.8633 95.4219 56.5039C95.75 57.1445 95.9141 57.8867 95.9141 58.7305C95.9141 59.5742 95.7187 60.2969 95.3281 60.8984C94.9375 61.5078 94.3516 61.9648 93.5703 62.2695C94.2891 62.668 94.8594 63.1953 95.2812 63.8516C95.7031 64.5078 95.9141 65.2734 95.9141 66.1484C95.9141 67.4453 95.4687 68.4688 94.5781 69.2188C93.6953 69.9688 92.3633 70.3438 90.582 70.3438H84.8047L84.4766 72.2539H83V66.1133H84.4766L84.8047 68.0234H90.6055C91.8555 68.0234 92.7383 67.8086 93.2539 67.3789C93.7773 66.9492 94.0391 66.3125 94.0391 65.4688C94.0391 64.6641 93.7539 64.0156 93.1836 63.5234C92.6211 63.0391 91.9102 62.7578 91.0508 62.6797L84.8047 62.6797L84.4766 64.5898H83V58.4609H84.4766L84.8047 60.3711L90.6055 60.3711C91.793 60.3711 92.6602 60.1484 93.207 59.7031C93.7617 59.2656 94.0391 58.6289 94.0391 57.793C94.0391 57.0898 93.8945 56.5117 93.6055 56.0586C93.3164 55.6055 92.9102 55.2578 92.3867 55.0156L84.8047 55.0156L84.4766 56.9258H83L83 50.7969ZM82.7539 78.0781C82.7539 76.7578 83.0742 75.7539 83.7148 75.0664C84.3633 74.3789 85.2734 74.0352 86.4453 74.0352C87.6484 74.0352 88.6133 74.5273 89.3398 75.5117C90.0742 76.4961 90.4414 77.8633 90.4414 79.6133V81.875H91.6836C92.4492 81.875 93.043 81.6406 93.4648 81.1719C93.8867 80.7109 94.0977 80.0586 94.0977 79.2148C94.0977 78.6836 94.0312 78.2227 93.8984 77.832C93.7734 77.4414 93.5977 77.0859 93.3711 76.7656L91.6016 76.5195V74.7383H94.5078C95.4453 75.8867 95.9141 77.3906 95.9141 79.25C95.9141 80.7891 95.5469 81.9961 94.8125 82.8711C94.0781 83.7461 93.0273 84.1836 91.6602 84.1836H85.5547C85.3906 84.1836 85.2305 84.1836 85.0742 84.1836C84.918 84.1914 84.7617 84.2031 84.6055 84.2188L84.4766 85.4492H83V82.1328C83.6406 82 84.2227 81.918 84.7461 81.8867C84.1758 81.4414 83.6992 80.8828 83.3164 80.2109C82.9414 79.5469 82.7539 78.8359 82.7539 78.0781ZM84.6875 78.418C84.6875 79.1836 84.8711 79.8828 85.2383 80.5156C85.6055 81.1484 86.0469 81.6016 86.5625 81.875H88.8594V79.5312C88.8594 78.4688 88.6055 77.6719 88.0977 77.1406C87.5898 76.6094 87.0234 76.3438 86.3984 76.3438C85.2578 76.3438 84.6875 77.0352 84.6875 78.418ZM83 87.2422H84.4766L84.8047 89.1523H93.8633L94.1914 87.2422H95.6797V91.2148L93.793 91.3789C94.4648 91.8008 94.9844 92.3281 95.3516 92.9609C95.7266 93.6016 95.9141 94.3281 95.9141 95.1406C95.9141 96.5078 95.5117 97.5664 94.707 98.3164C93.9102 99.0664 92.6758 99.4414 91.0039 99.4414H84.8047L84.4766 101.352H83V95.2227H84.4766L84.8047 97.1328H90.957C92.0742 97.1328 92.8672 96.9102 93.3359 96.4648C93.8047 96.0273 94.0391 95.3555 94.0391 94.4492C94.0391 93.7852 93.8789 93.1953 93.5586 92.6797C93.2383 92.1719 92.8008 91.7656 92.2461 91.4609H84.8047L84.4766 93.3711H83V87.2422Z" fill="black"/>
</g>
<path d="M18.768 126.936C18.272 126.936 17.928 126.704 17.736 126.24C17.56 125.792 17.472 125.248 17.472 124.608C17.472 124.288 17.488 123.944 17.52 123.576C17.552 123.192 17.592 122.816 17.64 122.448C17.288 123.152 16.904 123.832 16.488 124.488C16.088 125.144 15.664 125.68 15.216 126.096C14.768 126.512 14.296 126.72 13.8 126.72C13.272 126.72 12.84 126.48 12.504 126C12.168 125.52 12 124.952 12 124.296C12 123.832 12.072 123.296 12.216 122.688C12.376 122.08 12.568 121.48 12.792 120.888C13.016 120.296 13.248 119.808 13.488 119.424C13.728 119.04 13.936 118.848 14.112 118.848C14.192 118.848 14.36 118.896 14.616 118.992C14.872 119.072 15 119.184 15 119.328C14.824 119.6 14.608 120.016 14.352 120.576C14.096 121.136 13.872 121.744 13.68 122.4C13.488 123.04 13.392 123.624 13.392 124.152C13.392 124.28 13.408 124.48 13.44 124.752C13.472 125.008 13.544 125.24 13.656 125.448C13.784 125.656 13.976 125.76 14.232 125.76C14.6 125.76 14.992 125.528 15.408 125.064C15.824 124.6 16.24 124.016 16.656 123.312C17.072 122.608 17.464 121.896 17.832 121.176C17.96 120.52 18.064 120.04 18.144 119.736C18.24 119.432 18.336 119.24 18.432 119.16C18.528 119.064 18.648 119.016 18.792 119.016C19 119.016 19.168 119.064 19.296 119.16C19.424 119.24 19.488 119.368 19.488 119.544C19.488 119.592 19.472 119.68 19.44 119.808C19.328 120.192 19.216 120.68 19.104 121.272C19.008 121.848 18.928 122.448 18.864 123.072C18.8 123.696 18.768 124.28 18.768 124.824C18.768 125.608 18.944 126 19.296 126C19.536 126 19.816 125.856 20.136 125.568C20.456 125.264 20.784 124.872 21.12 124.392C21.472 123.896 21.808 123.36 22.128 122.784C22.464 122.208 22.76 121.64 23.016 121.08C23.016 120.248 23.072 119.616 23.184 119.184C23.312 118.736 23.464 118.432 23.64 118.272C23.832 118.112 24.024 118.032 24.216 118.032C24.52 118.032 24.736 118.144 24.864 118.368C25.008 118.576 25.08 118.768 25.08 118.944C25.08 119.056 25.056 119.176 25.008 119.304C24.96 119.416 24.896 119.544 24.816 119.688C24.688 119.928 24.56 120.24 24.432 120.624C24.304 120.992 24.24 121.504 24.24 122.16C24.24 122.416 24.264 122.688 24.312 122.976C24.36 123.264 24.464 123.504 24.624 123.696C24.784 123.888 25.032 123.984 25.368 123.984C25.704 123.984 26.024 123.856 26.328 123.6C26.648 123.328 26.96 122.864 27.264 122.208L27.576 122.448C27.224 123.248 26.832 123.784 26.4 124.056C25.984 124.328 25.584 124.464 25.2 124.464C24.176 124.464 23.504 123.792 23.184 122.448C22.784 123.184 22.336 123.896 21.84 124.584C21.344 125.272 20.832 125.832 20.304 126.264C19.776 126.712 19.264 126.936 18.768 126.936ZM29.4045 127.056C28.4285 127.056 27.6925 126.784 27.1965 126.24C26.7165 125.712 26.4765 125.056 26.4765 124.272C26.4765 123.552 26.6525 122.792 27.0045 121.992C27.3725 121.192 27.8525 120.44 28.4445 119.736C29.0525 119.032 29.7165 118.464 30.4365 118.032C31.1565 117.584 31.8685 117.36 32.5725 117.36C32.9405 117.36 33.2765 117.456 33.5805 117.648C33.9005 117.84 34.0605 118.232 34.0605 118.824C34.0605 119.432 33.8765 120.008 33.5085 120.552C33.1565 121.08 32.6845 121.552 32.0925 121.968C31.5165 122.384 30.8765 122.728 30.1725 123C29.4845 123.256 28.7965 123.416 28.1085 123.48C28.0765 123.64 28.0525 123.792 28.0365 123.936C28.0205 124.08 28.0125 124.216 28.0125 124.344C28.0125 124.84 28.1405 125.304 28.3965 125.736C28.6685 126.152 29.1725 126.36 29.9085 126.36C30.5965 126.36 31.2765 126.168 31.9485 125.784C32.6205 125.384 33.2445 124.864 33.8205 124.224C34.3965 123.584 34.8845 122.88 35.2845 122.112L35.5725 122.328C35.1405 123.288 34.5885 124.12 33.9165 124.824C33.2605 125.528 32.5405 126.072 31.7565 126.456C30.9885 126.856 30.2045 127.056 29.4045 127.056ZM28.2285 123.024C28.6605 122.88 29.1485 122.672 29.6925 122.4C30.2365 122.112 30.7565 121.776 31.2525 121.392C31.7645 121.008 32.1805 120.584 32.5005 120.12C32.8365 119.656 33.0045 119.168 33.0045 118.656C33.0045 118.48 32.9725 118.344 32.9085 118.248C32.8445 118.152 32.7085 118.104 32.5005 118.104C32.1165 118.104 31.7085 118.256 31.2765 118.56C30.8445 118.848 30.4285 119.232 30.0285 119.712C29.6285 120.192 29.2685 120.72 28.9485 121.296C28.6285 121.872 28.3885 122.448 28.2285 123.024ZM37.0367 127.752C36.2047 127.752 35.5807 127.48 35.1647 126.936C34.7647 126.392 34.5647 125.656 34.5647 124.728C34.5647 123.928 34.7007 122.984 34.9727 121.896C35.2447 120.808 35.6047 119.672 36.0527 118.488C36.5007 117.288 36.9967 116.12 37.5407 114.984C38.1007 113.848 38.6607 112.824 39.2207 111.912C39.7807 110.984 40.3087 110.248 40.8047 109.704C41.3007 109.144 41.7087 108.864 42.0287 108.864C42.3007 108.864 42.4927 109.032 42.6047 109.368C42.7327 109.704 42.7967 110.04 42.7967 110.376C42.7967 110.824 42.7007 111.368 42.5087 112.008C42.3167 112.648 42.0447 113.336 41.6927 114.072C41.3407 114.792 40.9327 115.504 40.4687 116.208C40.0047 116.912 39.5007 117.56 38.9567 118.152C38.4287 118.728 37.8847 119.184 37.3247 119.52C37.2287 119.696 37.0847 120.064 36.8927 120.624C36.7167 121.168 36.5487 121.8 36.3887 122.52C36.2447 123.224 36.1727 123.912 36.1727 124.584C36.1727 125.24 36.2687 125.776 36.4607 126.192C36.6687 126.624 37.0127 126.84 37.4927 126.84C37.9567 126.84 38.4367 126.648 38.9327 126.264C39.4287 125.896 39.8287 125.416 40.1327 124.824C39.5407 124.52 39.1007 124.08 38.8127 123.504C38.5247 122.912 38.3807 122.32 38.3807 121.728C38.3807 120.96 38.5807 120.344 38.9807 119.88C39.3807 119.416 39.8527 119.184 40.3967 119.184C40.8607 119.184 41.2287 119.376 41.5007 119.76C41.7727 120.128 41.9087 120.672 41.9087 121.392C41.9087 121.92 41.8367 122.464 41.6927 123.024C41.5487 123.584 41.3407 124.128 41.0687 124.656C41.2607 124.704 41.4687 124.728 41.6927 124.728C42.2687 124.728 42.7487 124.592 43.1327 124.32C43.5167 124.032 43.8367 123.688 44.0927 123.288C44.3647 122.872 44.5887 122.48 44.7647 122.112L45.0527 122.424C44.6047 123.528 44.0687 124.264 43.4447 124.632C42.8367 124.984 42.2287 125.16 41.6207 125.16C41.3487 125.16 41.0927 125.136 40.8527 125.088C40.4207 125.824 39.8847 126.448 39.2447 126.96C38.6207 127.488 37.8847 127.752 37.0367 127.752ZM37.5887 118.584C38.0367 118.232 38.4687 117.784 38.8847 117.24C39.3167 116.696 39.7167 116.12 40.0847 115.512C40.4527 114.888 40.7807 114.28 41.0687 113.688C41.3567 113.096 41.5807 112.56 41.7407 112.08C41.9007 111.6 41.9807 111.24 41.9807 111C41.9807 110.872 41.9487 110.808 41.8847 110.808C41.7567 110.808 41.5087 111.04 41.1407 111.504C40.7887 111.952 40.3887 112.56 39.9407 113.328C39.5087 114.08 39.0767 114.92 38.6447 115.848C38.2127 116.76 37.8607 117.672 37.5887 118.584ZM40.3727 124.344C40.5487 123.976 40.6847 123.592 40.7807 123.192C40.8767 122.776 40.9247 122.352 40.9247 121.92C40.9247 121.36 40.8447 120.92 40.6847 120.6C40.5407 120.28 40.3567 120.12 40.1327 120.12C39.8927 120.12 39.6767 120.288 39.4847 120.624C39.3087 120.944 39.2207 121.352 39.2207 121.848C39.2207 122.28 39.3087 122.736 39.4847 123.216C39.6607 123.696 39.9567 124.072 40.3727 124.344ZM45.666 126.72C45.266 126.72 44.866 126.56 44.466 126.24C44.066 125.92 43.866 125.408 43.866 124.704C43.866 124.176 43.994 123.584 44.25 122.928C44.506 122.272 44.85 121.624 45.282 120.984C45.714 120.328 46.21 119.728 46.77 119.184C47.33 118.624 47.914 118.184 48.522 117.864C49.13 117.528 49.73 117.36 50.322 117.36C51.026 117.36 51.378 117.608 51.378 118.104C51.378 118.168 51.37 118.224 51.354 118.272C51.354 118.32 51.346 118.376 51.33 118.44C51.17 118.2 50.866 118.08 50.418 118.08C49.906 118.08 49.402 118.24 48.906 118.56C48.426 118.864 47.978 119.272 47.562 119.784C47.162 120.28 46.81 120.816 46.506 121.392C46.202 121.968 45.962 122.528 45.786 123.072C45.626 123.6 45.546 124.048 45.546 124.416C45.546 124.768 45.626 125.048 45.786 125.256C45.946 125.464 46.154 125.568 46.41 125.568C46.842 125.568 47.362 125.296 47.97 124.752C48.594 124.208 49.226 123.44 49.866 122.448C50.506 121.456 51.082 120.296 51.594 118.968C51.946 118.04 52.306 117.096 52.674 116.136C53.058 115.176 53.442 114.256 53.826 113.376C54.21 112.48 54.578 111.688 54.93 111C55.298 110.296 55.642 109.744 55.962 109.344C56.298 108.928 56.594 108.72 56.85 108.72C56.978 108.72 57.09 108.776 57.186 108.888C57.282 108.984 57.33 109.112 57.33 109.272C57.33 109.528 57.194 109.968 56.922 110.592C56.666 111.2 56.322 111.936 55.89 112.8C55.474 113.648 55.034 114.576 54.57 115.584C54.106 116.592 53.658 117.616 53.226 118.656C52.81 119.696 52.466 120.704 52.194 121.68C51.938 122.64 51.81 123.52 51.81 124.32C51.81 124.768 51.834 125.104 51.882 125.328C51.93 125.552 52.09 125.664 52.362 125.664C52.698 125.664 53.09 125.52 53.538 125.232C53.986 124.944 54.434 124.536 54.882 124.008C55.33 123.48 55.722 122.848 56.058 122.112L56.346 122.328C56.042 123.144 55.626 123.88 55.098 124.536C54.57 125.176 54.002 125.68 53.394 126.048C52.802 126.432 52.234 126.624 51.69 126.624C51.098 126.624 50.682 126.424 50.442 126.024C50.218 125.64 50.106 125.24 50.106 124.824C50.106 124.552 50.146 124.192 50.226 123.744C50.306 123.296 50.418 122.8 50.562 122.256C50.05 123.104 49.506 123.872 48.93 124.56C48.354 125.232 47.786 125.76 47.226 126.144C46.682 126.528 46.162 126.72 45.666 126.72ZM58.1858 127.056C57.2098 127.056 56.4738 126.784 55.9778 126.24C55.4977 125.712 55.2577 125.056 55.2577 124.272C55.2577 123.552 55.4337 122.792 55.7858 121.992C56.1538 121.192 56.6338 120.44 57.2258 119.736C57.8338 119.032 58.4978 118.464 59.2178 118.032C59.9378 117.584 60.6498 117.36 61.3538 117.36C61.7218 117.36 62.0578 117.456 62.3618 117.648C62.6818 117.84 62.8418 118.232 62.8418 118.824C62.8418 119.432 62.6578 120.008 62.2898 120.552C61.9378 121.08 61.4658 121.552 60.8738 121.968C60.2978 122.384 59.6578 122.728 58.9538 123C58.2658 123.256 57.5778 123.416 56.8898 123.48C56.8578 123.64 56.8338 123.792 56.8178 123.936C56.8018 124.08 56.7938 124.216 56.7938 124.344C56.7938 124.84 56.9218 125.304 57.1777 125.736C57.4498 126.152 57.9538 126.36 58.6898 126.36C59.3778 126.36 60.0578 126.168 60.7298 125.784C61.4018 125.384 62.0258 124.864 62.6018 124.224C63.1778 123.584 63.6658 122.88 64.0658 122.112L64.3538 122.328C63.9218 123.288 63.3698 124.12 62.6978 124.824C62.0418 125.528 61.3218 126.072 60.5378 126.456C59.7698 126.856 58.9858 127.056 58.1858 127.056ZM57.0098 123.024C57.4418 122.88 57.9298 122.672 58.4738 122.4C59.0178 122.112 59.5378 121.776 60.0338 121.392C60.5458 121.008 60.9618 120.584 61.2818 120.12C61.6178 119.656 61.7858 119.168 61.7858 118.656C61.7858 118.48 61.7538 118.344 61.6898 118.248C61.6258 118.152 61.4898 118.104 61.2818 118.104C60.8978 118.104 60.4898 118.256 60.0578 118.56C59.6258 118.848 59.2098 119.232 58.8098 119.712C58.4098 120.192 58.0498 120.72 57.7298 121.296C57.4098 121.872 57.1698 122.448 57.0098 123.024ZM65.1459 126.936C64.6499 126.936 64.3059 126.688 64.1139 126.192C63.9219 125.712 63.8259 125.08 63.8259 124.296C63.8259 124.264 63.8339 124.016 63.8499 123.552C63.8659 123.072 63.9059 122.272 63.9699 121.152C64.0019 120.72 64.0499 120.424 64.1139 120.264C64.1779 120.104 64.3859 120.024 64.7379 120.024C65.0099 120.024 65.1779 120.08 65.2419 120.192C65.3219 120.288 65.3619 120.488 65.3619 120.792C65.3619 121.32 65.3219 121.944 65.2419 122.664C65.1779 123.368 65.1459 124.032 65.1459 124.656C65.1459 125.12 65.1859 125.464 65.2659 125.688C65.3459 125.896 65.4899 126 65.6979 126C65.9859 126 66.3059 125.84 66.6579 125.52C67.0099 125.184 67.3699 124.752 67.7379 124.224C68.1059 123.68 68.4499 123.104 68.7699 122.496C69.1059 121.888 69.4019 121.304 69.6579 120.744C69.6899 119.656 69.8019 118.936 69.9939 118.584C70.2019 118.216 70.4579 118.032 70.7619 118.032C71.0659 118.032 71.2819 118.144 71.4099 118.368C71.5539 118.576 71.6259 118.768 71.6259 118.944C71.6259 119.152 71.5539 119.368 71.4099 119.592C71.2819 119.816 71.1459 120.12 71.0019 120.504C70.8579 120.888 70.7859 121.44 70.7859 122.16C70.7859 122.416 70.8099 122.688 70.8579 122.976C70.9059 123.264 71.0099 123.504 71.1699 123.696C71.3299 123.888 71.5779 123.984 71.9139 123.984C72.2499 123.984 72.5699 123.856 72.8739 123.6C73.1939 123.328 73.5059 122.864 73.8099 122.208L74.1219 122.448C73.7699 123.248 73.3779 123.784 72.9459 124.056C72.5299 124.328 72.1299 124.464 71.7459 124.464C71.2179 124.464 70.7779 124.272 70.4259 123.888C70.0739 123.504 69.8419 122.92 69.7299 122.136C69.3459 122.92 68.8899 123.68 68.3619 124.416C67.8499 125.136 67.3139 125.736 66.7539 126.216C66.1939 126.696 65.6579 126.936 65.1459 126.936ZM75.9514 127.056C74.9754 127.056 74.2394 126.784 73.7434 126.24C73.2634 125.712 73.0234 125.056 73.0234 124.272C73.0234 123.552 73.1994 122.792 73.5514 121.992C73.9194 121.192 74.3994 120.44 74.9914 119.736C75.5994 119.032 76.2634 118.464 76.9834 118.032C77.7034 117.584 78.4154 117.36 79.1194 117.36C79.4874 117.36 79.8234 117.456 80.1274 117.648C80.4474 117.84 80.6074 118.232 80.6074 118.824C80.6074 119.432 80.4234 120.008 80.0554 120.552C79.7034 121.08 79.2314 121.552 78.6394 121.968C78.0634 122.384 77.4234 122.728 76.7194 123C76.0314 123.256 75.3434 123.416 74.6554 123.48C74.6234 123.64 74.5994 123.792 74.5834 123.936C74.5674 124.08 74.5594 124.216 74.5594 124.344C74.5594 124.84 74.6874 125.304 74.9434 125.736C75.2154 126.152 75.7194 126.36 76.4554 126.36C77.1434 126.36 77.8234 126.168 78.4954 125.784C79.1674 125.384 79.7914 124.864 80.3674 124.224C80.9434 123.584 81.4314 122.88 81.8314 122.112L82.1194 122.328C81.6874 123.288 81.1354 124.12 80.4634 124.824C79.8074 125.528 79.0874 126.072 78.3034 126.456C77.5354 126.856 76.7514 127.056 75.9514 127.056ZM74.7754 123.024C75.2074 122.88 75.6954 122.672 76.2394 122.4C76.7834 122.112 77.3034 121.776 77.7994 121.392C78.3114 121.008 78.7274 120.584 79.0474 120.12C79.3834 119.656 79.5514 119.168 79.5514 118.656C79.5514 118.48 79.5194 118.344 79.4554 118.248C79.3914 118.152 79.2554 118.104 79.0474 118.104C78.6634 118.104 78.2554 118.256 77.8234 118.56C77.3914 118.848 76.9754 119.232 76.5754 119.712C76.1754 120.192 75.8154 120.72 75.4954 121.296C75.1754 121.872 74.9354 122.448 74.7754 123.024ZM83.3436 126.72C82.6556 126.72 82.1596 126.48 81.8556 126C81.5676 125.536 81.4236 124.952 81.4236 124.248C81.4236 123.48 81.5676 122.568 81.8556 121.512C82.1436 120.456 82.5196 119.344 82.9836 118.176C83.4636 117.008 83.9836 115.872 84.5436 114.768C85.1036 113.648 85.6636 112.632 86.2236 111.72C86.7836 110.808 87.2956 110.08 87.7596 109.536C88.2396 108.992 88.6156 108.72 88.8876 108.72C89.0636 108.72 89.2076 108.824 89.3196 109.032C89.4316 109.224 89.5196 109.464 89.5836 109.752C89.6476 110.024 89.6796 110.272 89.6796 110.496C89.6796 110.928 89.5676 111.496 89.3436 112.2C89.1356 112.888 88.8316 113.664 88.4316 114.528C88.0476 115.376 87.5836 116.24 87.0396 117.12C86.5116 117.984 85.9276 118.816 85.2876 119.616C84.6636 120.416 83.9996 121.104 83.2956 121.68C83.1996 122.112 83.1196 122.536 83.0556 122.952C83.0076 123.352 82.9836 123.736 82.9836 124.104C82.9836 125.336 83.3356 125.952 84.0396 125.952C84.4716 125.952 84.8956 125.76 85.3116 125.376C85.7436 124.992 86.1436 124.512 86.5116 123.936C86.8956 123.344 87.2236 122.736 87.4956 122.112L87.8556 122.304C87.2156 123.664 86.5196 124.744 85.7676 125.544C85.0156 126.328 84.2076 126.72 83.3436 126.72ZM83.5116 120.864C84.0716 120.304 84.6156 119.664 85.1436 118.944C85.6716 118.208 86.1596 117.448 86.6076 116.664C87.0716 115.88 87.4796 115.12 87.8316 114.384C88.1836 113.648 88.4556 112.992 88.6476 112.416C88.8396 111.824 88.9356 111.368 88.9356 111.048C88.9356 110.888 88.9116 110.784 88.8636 110.736C88.8316 110.688 88.7996 110.664 88.7676 110.664C88.6396 110.664 88.4156 110.872 88.0956 111.288C87.7916 111.688 87.4316 112.232 87.0156 112.92C86.5996 113.608 86.1756 114.392 85.7436 115.272C85.3116 116.152 84.8956 117.072 84.4956 118.032C84.1116 118.992 83.7836 119.936 83.5116 120.864ZM88.6794 126.768C87.9914 126.768 87.5034 126.552 87.2154 126.12C86.9274 125.704 86.7834 125.192 86.7834 124.584C86.7834 124.088 86.8634 123.576 87.0234 123.048C87.1834 122.52 87.3914 122.024 87.6474 121.56C87.9194 121.096 88.2154 120.72 88.5354 120.432C88.8714 120.144 89.2074 120 89.5434 120C89.6874 120 89.8554 120.04 90.0474 120.12C89.9034 120.248 89.7274 120.488 89.5194 120.84C89.3274 121.176 89.1434 121.568 88.9674 122.016C88.7914 122.448 88.6394 122.88 88.5114 123.312C88.3994 123.744 88.3434 124.112 88.3434 124.416C88.3434 124.896 88.4234 125.248 88.5834 125.472C88.7434 125.68 88.9514 125.784 89.2074 125.784C89.5434 125.784 89.9434 125.608 90.4074 125.256C90.8714 124.888 91.3274 124.424 91.7754 123.864C91.3274 123.496 90.9754 123.016 90.7194 122.424C90.4794 121.816 90.3594 121.2 90.3594 120.576C90.3594 120.048 90.4474 119.552 90.6234 119.088C90.8154 118.624 91.0874 118.256 91.4394 117.984C91.7914 117.696 92.2154 117.552 92.7114 117.552C93.3674 117.552 93.8074 117.728 94.0314 118.08C94.2554 118.432 94.3674 118.872 94.3674 119.4C94.3674 120.024 94.2154 120.72 93.9114 121.488C93.6074 122.24 93.2234 122.968 92.7594 123.672C93.0474 123.832 93.3514 123.912 93.6714 123.912C94.0394 123.912 94.4874 123.792 95.0154 123.552C95.5434 123.296 95.9514 122.84 96.2394 122.184L96.5274 122.424C96.2074 123.176 95.7514 123.712 95.1594 124.032C94.5834 124.336 94.0314 124.488 93.5034 124.488C93.0714 124.488 92.6874 124.408 92.3514 124.248C91.8074 124.968 91.2074 125.568 90.5514 126.048C89.9114 126.528 89.2874 126.768 88.6794 126.768ZM92.2074 123.24C92.6074 122.648 92.9354 122.032 93.1914 121.392C93.4634 120.736 93.5994 120.12 93.5994 119.544C93.5994 119.08 93.5274 118.744 93.3834 118.536C93.2554 118.312 93.0874 118.2 92.8794 118.2C92.5594 118.2 92.2314 118.432 91.8954 118.896C91.5594 119.36 91.3914 119.944 91.3914 120.648C91.3914 121.112 91.4554 121.584 91.5834 122.064C91.7274 122.528 91.9354 122.92 92.2074 123.24ZM94.2771 132.72C94.1491 132.72 94.0291 132.648 93.9171 132.504C93.7891 132.376 93.6931 132.232 93.6291 132.072C93.5651 131.928 93.5331 131.84 93.5331 131.808C93.7571 131.024 93.9811 130.32 94.2051 129.696C94.4131 129.088 94.6291 128.456 94.8531 127.8C95.0611 127.16 95.2691 126.408 95.4771 125.544C95.6851 124.664 95.9011 123.576 96.1251 122.28C96.3491 120.984 96.5731 119.376 96.7971 117.456C96.8131 117.312 96.8451 117.208 96.8931 117.144C96.9411 117.08 97.0611 117.048 97.2531 117.048C97.6691 117.048 97.9651 117.168 98.1411 117.408C98.3171 117.632 98.4051 117.88 98.4051 118.152C98.4051 118.376 98.3571 118.776 98.2611 119.352C98.1651 119.928 98.0291 120.608 97.8531 121.392C98.1251 120.864 98.4611 120.328 98.8611 119.784C99.2771 119.24 99.7491 118.784 100.277 118.416C100.805 118.048 101.381 117.864 102.005 117.864C102.709 117.864 103.285 118.12 103.733 118.632C104.197 119.128 104.429 119.784 104.429 120.6C104.429 121.224 104.285 121.888 103.997 122.592C103.725 123.28 103.333 123.936 102.821 124.56C102.325 125.168 101.733 125.664 101.045 126.048C100.357 126.432 99.5971 126.624 98.7651 126.624C98.3491 126.624 98.0131 126.576 97.7571 126.48C97.5011 126.384 97.3731 126.288 97.3731 126.192C97.3731 126.128 97.4291 126.088 97.5411 126.072C97.6691 126.072 97.8131 126.072 97.9731 126.072C98.6131 126.072 99.2211 125.92 99.7971 125.616C100.389 125.296 100.917 124.88 101.381 124.368C101.845 123.856 102.205 123.288 102.461 122.664C102.733 122.04 102.869 121.424 102.869 120.816C102.869 120.304 102.757 119.872 102.533 119.52C102.325 119.152 101.981 118.968 101.501 118.968C101.085 118.968 100.669 119.104 100.253 119.376C99.8531 119.632 99.4691 119.968 99.1011 120.384C98.7491 120.784 98.4291 121.208 98.1411 121.656C97.8691 122.088 97.6611 122.48 97.5171 122.832C97.2291 124.032 96.9411 125.184 96.6531 126.288C96.3651 127.408 96.0851 128.416 95.8131 129.312C95.5571 130.224 95.3251 130.968 95.1171 131.544C94.8931 132.12 94.7091 132.472 94.5651 132.6C94.4851 132.68 94.3891 132.72 94.2771 132.72ZM107.756 127.056C106.78 127.056 106.044 126.784 105.548 126.24C105.068 125.712 104.828 125.056 104.828 124.272C104.828 123.552 105.004 122.792 105.356 121.992C105.724 121.192 106.204 120.44 106.796 119.736C107.404 119.032 108.068 118.464 108.788 118.032C109.508 117.584 110.22 117.36 110.924 117.36C111.292 117.36 111.628 117.456 111.932 117.648C112.252 117.84 112.412 118.232 112.412 118.824C112.412 119.432 112.228 120.008 111.86 120.552C111.508 121.08 111.036 121.552 110.444 121.968C109.868 122.384 109.228 122.728 108.524 123C107.836 123.256 107.148 123.416 106.46 123.48C106.428 123.64 106.404 123.792 106.388 123.936C106.372 124.08 106.364 124.216 106.364 124.344C106.364 124.84 106.492 125.304 106.748 125.736C107.02 126.152 107.524 126.36 108.26 126.36C108.948 126.36 109.628 126.168 110.3 125.784C110.972 125.384 111.596 124.864 112.172 124.224C112.748 123.584 113.236 122.88 113.636 122.112L113.924 122.328C113.492 123.288 112.94 124.12 112.268 124.824C111.612 125.528 110.892 126.072 110.108 126.456C109.34 126.856 108.556 127.056 107.756 127.056ZM106.58 123.024C107.012 122.88 107.5 122.672 108.044 122.4C108.588 122.112 109.108 121.776 109.604 121.392C110.116 121.008 110.532 120.584 110.852 120.12C111.188 119.656 111.356 119.168 111.356 118.656C111.356 118.48 111.324 118.344 111.26 118.248C111.196 118.152 111.06 118.104 110.852 118.104C110.468 118.104 110.06 118.256 109.628 118.56C109.196 118.848 108.78 119.232 108.38 119.712C107.98 120.192 107.62 120.72 107.3 121.296C106.98 121.872 106.74 122.448 106.58 123.024ZM117.308 126.624C116.764 126.624 116.332 126.48 116.012 126.192C115.708 125.904 115.556 125.528 115.556 125.064C115.556 124.584 115.668 124.08 115.892 123.552C116.116 123.024 116.332 122.504 116.54 121.992C116.764 121.464 116.876 120.992 116.876 120.576C116.876 120.064 116.724 119.688 116.42 119.448C116.132 119.192 115.836 118.96 115.532 118.752C115.164 119.696 114.78 120.592 114.38 121.44C113.98 122.288 113.652 122.928 113.396 123.36L113.18 122.952C113.404 122.536 113.692 121.928 114.044 121.128C114.412 120.328 114.772 119.416 115.124 118.392C114.964 118.232 114.884 118.04 114.884 117.816C114.884 117.336 115.02 116.944 115.292 116.64C115.564 116.336 115.764 116.184 115.892 116.184C116.068 116.184 116.164 116.264 116.18 116.424C116.212 116.568 116.228 116.68 116.228 116.76C116.228 116.84 116.18 117 116.084 117.24C116.004 117.464 115.964 117.6 115.964 117.648C115.964 117.872 116.084 118.08 116.324 118.272C116.58 118.448 116.868 118.656 117.188 118.896C117.508 119.12 117.788 119.4 118.028 119.736C118.284 120.056 118.412 120.472 118.412 120.984C118.412 121.464 118.308 121.952 118.1 122.448C117.908 122.944 117.708 123.416 117.5 123.864C117.308 124.312 117.212 124.704 117.212 125.04C117.212 125.328 117.284 125.52 117.428 125.616C117.572 125.712 117.74 125.76 117.932 125.76C118.316 125.76 118.708 125.64 119.108 125.4C119.524 125.16 119.924 124.856 120.308 124.488C120.692 124.12 121.036 123.736 121.34 123.336C121.644 122.92 121.868 122.536 122.012 122.184L122.324 122.424C122.02 123.096 121.604 123.76 121.076 124.416C120.548 125.056 119.956 125.584 119.3 126C118.66 126.416 117.996 126.624 117.308 126.624Z" fill="#448712"/>
<defs>
<filter id="filter0_d" x="78.7539" y="5.94922" width="26.5273" height="103.402" filterUnits="userSpaceOnUse" color-interpolation-filters="sRGB">
<feFlood flood-opacity="0" result="BackgroundImageFix"/>
<feColorMatrix in="SourceAlpha" type="matrix" values="0 0 0 0 0 0 0 0 0 0 0 0 0 0 0 0 0 0 127 0"/>
<feOffset dy="4"/>
<feGaussianBlur stdDeviation="2"/>
<feColorMatrix type="matrix" values="0 0 0 0 0 0 0 0 0 0 0 0 0 0 0 0 0 0 0.25 0"/>
<feBlend mode="normal" in2="BackgroundImageFix" result="effect1_dropShadow"/>
<feBlend mode="normal" in="SourceGraphic" in2="effect1_dropShadow" result="shape"/>
</filter>
</defs>
</svg>
